<?xml version="1.0" standalone="no"?>
<!DOCTYPE svg PUBLIC "-//W3C//DTD SVG 20010904//EN"
 "http://www.w3.org/TR/2001/REC-SVG-20010904/DTD/svg10.dtd">
<svg version="1.0" xmlns="http://www.w3.org/2000/svg"
 width="460.000000pt" height="460.000000pt" viewBox="0 0 460.000000 460.000000"
 preserveAspectRatio="xMidYMid meet">
<metadata>
Created by potrace 1.14, written by Peter Selinger 2001-2017
</metadata>
<g transform="translate(0.000000,460.000000) scale(0.100000,-0.100000)"
fill="#000000" stroke="none">
<path d="M0 3780 c0 -506 4 -820 9 -820 6 0 12 4 15 8 3 5 107 12 231 16 185
6 229 5 245 -7 11 -8 17 -17 13 -20 -3 -4 0 -7 8 -7 20 0 40 -36 32 -56 -4
-11 -2 -15 4 -11 7 4 18 -19 29 -61 9 -37 24 -80 31 -95 11 -22 12 -32 2 -43
-9 -11 -8 -14 5 -14 9 0 16 -5 16 -11 0 -6 -9 -8 -20 -4 -15 5 -18 3 -14 -9 3
-9 11 -16 16 -16 7 0 7 -4 0 -12 -6 -7 -11 -16 -11 -21 0 -4 -12 -29 -26 -57
-14 -27 -25 -55 -25 -62 -1 -7 -12 -26 -25 -43 -18 -22 -27 -27 -36 -18 -8 8
-8 13 0 17 6 4 11 4 11 -1 0 -4 6 3 13 17 7 14 21 39 31 55 18 30 18 30 -1 7
-13 -17 -24 -21 -38 -16 -18 7 -19 6 -6 -10 11 -13 11 -20 3 -28 -7 -7 -12 -8
-12 -4 0 5 -7 3 -15 -4 -11 -9 -12 -16 -4 -26 12 -15 -17 -88 -32 -78 -5 3 -6
-1 -3 -9 3 -8 -2 -20 -11 -27 -13 -10 -15 -9 -15 7 0 10 -5 24 -12 31 -18 18
-58 15 -65 -5 -4 -10 -15 -24 -25 -31 -10 -7 -16 -17 -14 -21 3 -4 1 -13 -5
-21 -7 -13 -9 -13 -9 0 0 8 -3 26 -5 40 -5 22 -4 22 4 5 7 -14 10 -16 10 -5 1
9 19 36 42 60 55 59 105 169 77 171 -7 0 -1 5 15 11 15 5 27 15 26 21 -3 25 1
38 11 32 6 -3 7 1 4 10 -4 8 -2 21 4 28 15 19 23 65 12 72 -5 3 -12 -7 -16
-22 -9 -44 -12 -50 -13 -26 -1 32 18 69 43 81 18 9 18 11 3 11 -10 1 -16 5
-12 11 6 9 -10 43 -30 65 -5 6 -21 27 -34 47 -23 34 -29 36 -94 43 -43 4 -73
2 -81 -4 -9 -7 -16 -7 -23 0 -5 5 -35 13 -66 16 -45 5 -64 2 -97 -16 -22 -11
-47 -21 -55 -21 -8 0 -15 -6 -15 -14 0 -10 15 -12 70 -8 131 9 211 -48 246
-175 21 -76 12 -139 -31 -226 -26 -55 -73 -112 -83 -103 -3 4 4 15 15 26 22
20 79 128 71 135 -2 2 -19 -24 -38 -58 -18 -34 -41 -67 -49 -73 -9 -7 -28 -23
-44 -36 -15 -13 -56 -33 -92 -43 l-64 -20 1 -110 c0 -60 3 -102 5 -92 3 12 10
16 21 12 14 -5 15 -4 4 6 -6 7 -12 23 -12 35 0 19 7 24 42 29 67 10 163 2 160
-12 -2 -12 11 -17 31 -14 5 1 6 -3 3 -8 -4 -5 0 -12 6 -15 7 -3 0 -4 -17 -1
-26 5 -28 4 -13 -8 26 -21 7 -36 -52 -42 -65 -6 -122 3 -113 18 3 6 1 7 -5 3
-6 -4 -8 -14 -5 -22 4 -11 0 -15 -13 -12 -11 2 -18 -2 -16 -9 1 -7 -5 -13 -13
-13 -13 0 -15 -49 -15 -377 l0 -376 31 49 c18 27 40 61 50 76 11 15 19 29 19
32 0 13 113 196 121 196 5 0 9 6 9 13 0 11 61 103 194 289 69 97 96 128 113
128 7 0 17 8 22 19 15 27 37 32 54 13 14 -15 13 -21 -4 -56 -10 -21 -21 -54
-25 -73 -3 -18 -10 -36 -15 -39 -5 -3 -9 -25 -9 -50 0 -24 -4 -44 -10 -44 -5
0 -10 -9 -10 -20 0 -12 -9 -39 -20 -60 -11 -22 -19 -52 -18 -67 1 -16 -4 -39
-11 -51 -7 -13 -10 -26 -7 -30 3 -3 6 1 6 8 0 7 2 11 5 8 3 -2 -4 -23 -15 -46
-11 -22 -20 -50 -20 -60 0 -11 -7 -25 -15 -32 -10 -8 -13 -20 -9 -34 6 -18 5
-19 -10 -7 -17 14 -21 5 -10 -23 3 -9 10 -13 15 -10 5 3 5 -6 -1 -21 -14 -37
-103 -144 -120 -144 -12 0 -11 2 3 10 9 5 17 14 17 20 0 5 -9 4 -20 -3 -11 -7
-18 -19 -15 -26 7 -19 -44 -70 -78 -78 -19 -4 -27 -11 -23 -20 5 -12 2 -12
-15 -3 -12 6 -19 7 -15 1 3 -5 0 -15 -8 -21 -11 -9 -15 -9 -20 1 -4 9 -5 9 -5
-2 2 -32 -2 -40 -20 -40 -14 0 -19 -6 -16 -19 2 -13 -10 -29 -35 -50 -21 -17
-42 -31 -47 -31 -4 0 0 5 9 11 10 5 18 15 18 21 0 6 -9 3 -20 -7 -19 -17 -19
-34 -20 -521 l0 -504 1609 0 1610 0 4 23 4 22 2 -22 c2 -39 21 -25 21 15 0 25
-3 33 -9 23 -6 -10 -11 -4 -16 20 -4 19 -12 39 -17 46 -5 7 -7 17 -3 22 3 6
-1 24 -9 40 -16 29 -32 119 -41 221 -2 30 -9 93 -15 140 -11 94 -11 304 0 420
l7 75 2 -100 c2 -55 5 -127 8 -160 3 -33 6 -72 7 -87 0 -14 4 -24 7 -22 8 4
19 -76 24 -171 2 -38 7 -104 11 -145 4 -41 6 -88 5 -104 -2 -18 1 -26 8 -22 6
4 12 1 12 -6 8 -68 10 -97 10 -117 1 -16 4 -20 9 -11 12 19 23 -6 15 -37 -5
-20 -3 -24 9 -20 11 4 13 1 9 -10 -4 -11 -2 -14 5 -9 7 4 12 1 12 -8 0 -14 68
-16 650 -16 l650 0 0 250 c0 138 -2 250 -4 250 -3 0 -16 -4 -30 -10 -21 -8
-24 -7 -19 8 4 9 17 32 30 51 22 32 23 43 23 199 l0 165 -23 -21 c-19 -18 -26
-19 -36 -9 -11 10 -12 7 -6 -13 4 -18 4 -21 -4 -11 -8 13 -13 11 -31 -10 -20
-24 -20 -24 1 14 25 45 38 54 50 36 7 -9 8 -5 3 13 -5 21 0 32 20 51 26 24 26
27 26 162 0 121 -2 136 -16 131 -9 -3 -21 -6 -26 -6 -6 0 -8 -3 -5 -6 3 -4 0
-16 -8 -28 -8 -11 -15 -26 -15 -34 0 -19 -45 -83 -53 -75 -4 3 -7 -1 -7 -9 0
-8 -13 -39 -29 -69 -15 -30 -32 -65 -36 -78 -4 -13 -20 -37 -37 -54 -22 -24
-31 -28 -37 -18 -5 8 -8 -3 -7 -27 0 -33 -5 -46 -30 -70 -18 -16 -36 -47 -42
-68 -5 -22 -10 -31 -11 -22 -1 10 -11 23 -23 29 -18 10 -24 8 -34 -7 -7 -11
-19 -26 -26 -34 -19 -21 -24 -150 -7 -161 11 -6 4 -18 -28 -48 -25 -25 -49
-61 -61 -94 -12 -30 -30 -70 -41 -88 -12 -19 -21 -41 -21 -49 0 -8 -11 -20
-25 -26 -21 -10 -26 -9 -40 12 -8 13 -15 30 -15 38 0 30 -32 96 -47 96 -12 0
-12 3 1 22 9 12 16 33 16 46 0 16 5 22 13 19 10 -4 13 4 12 25 -1 16 9 54 23
83 21 45 28 52 43 45 15 -9 17 -5 13 30 -4 29 -1 40 8 38 6 -2 13 2 13 7 1 6
13 35 28 65 28 55 35 129 11 109 -6 -5 -20 -7 -30 -3 -15 5 -16 4 -4 -5 12 -9
12 -11 -2 -16 -10 -4 -22 -4 -28 0 -6 4 -10 -3 -10 -17 0 -25 -66 -102 -80
-93 -5 3 -8 14 -7 25 1 10 5 17 9 14 4 -3 5 -12 1 -22 -3 -9 8 1 23 23 16 22
33 53 39 70 5 16 20 34 32 41 13 6 21 13 18 16 -7 7 44 108 55 108 6 0 10 8
10 18 0 10 9 24 20 32 11 8 20 20 20 27 0 6 4 15 10 18 6 3 7 -1 4 -9 -3 -9
-1 -16 5 -16 6 0 11 9 11 20 0 11 3 19 8 19 19 -3 23 2 13 15 -9 11 -8 15 5
20 9 4 14 12 10 22 -3 9 -2 12 5 9 6 -4 13 2 16 14 6 23 19 28 26 9 2 -7 2 -1
0 13 -2 15 4 35 15 50 10 13 22 37 26 52 4 17 11 25 18 21 7 -5 9 0 6 14 -4
12 -2 22 3 22 5 0 9 -9 9 -20 0 -11 4 -20 9 -20 18 0 22 -35 9 -77 -7 -24 -16
-43 -20 -43 -4 0 -8 -11 -8 -24 0 -14 -5 -28 -10 -31 -6 -4 -20 -28 -32 -53
-12 -26 -25 -49 -29 -52 -4 -3 -10 -17 -12 -30 -10 -53 -20 -85 -29 -91 -5 -3
-1 -27 10 -53 l18 -47 14 28 c20 38 90 144 112 167 10 11 18 26 18 33 0 7 4
13 10 13 5 0 12 11 16 25 3 14 10 25 15 25 5 0 9 6 9 13 0 7 16 36 35 66 19
29 35 57 35 62 0 5 4 9 8 9 5 0 14 25 21 55 8 33 20 60 33 69 14 10 18 20 13
35 -3 12 -2 21 3 21 6 0 17 18 26 40 14 35 16 103 15 543 -1 276 -4 493 -6
482 -3 -11 -10 -25 -15 -32 -5 -7 -7 -16 -5 -20 8 -12 -39 -104 -47 -95 -4 4
-5 -5 -1 -21 5 -17 3 -27 -4 -27 -6 0 -11 -9 -11 -21 0 -11 -4 -18 -9 -15 -5
4 -7 -2 -4 -13 2 -10 -5 -38 -16 -62 -12 -23 -21 -48 -21 -53 0 -6 -14 -38
-30 -70 -17 -32 -30 -64 -30 -71 0 -7 -7 -26 -16 -44 -9 -18 -22 -54 -29 -79
-8 -26 -20 -63 -27 -82 -13 -35 -22 -50 -83 -145 -108 -168 -245 -406 -245
-426 0 -9 -7 -23 -16 -30 -17 -14 -57 -94 -59 -115 0 -6 -8 -19 -18 -28 -9
-10 -17 -25 -17 -35 0 -9 -9 -27 -20 -39 -11 -12 -20 -32 -20 -45 0 -14 -7
-30 -15 -37 -8 -7 -15 -19 -15 -27 0 -7 -7 -16 -15 -19 -8 -4 -15 -10 -15 -16
0 -10 -25 -38 -33 -38 -6 0 28 67 43 85 10 12 9 15 -4 15 -9 0 -16 -6 -16 -13
0 -7 -9 -19 -20 -27 -11 -8 -20 -20 -20 -27 0 -7 -7 -13 -15 -13 -8 0 -15 -7
-15 -16 0 -8 -7 -22 -15 -30 -13 -14 -15 -13 -15 2 0 10 -3 15 -6 11 -4 -3 -6
-37 -6 -74 0 -49 -2 -63 -10 -49 -5 9 -7 24 -4 32 4 10 1 14 -6 12 -8 -3 -14
-25 -15 -57 -1 -57 -5 -67 -23 -56 -8 5 -8 10 0 20 8 10 7 17 -3 27 -12 11
-11 19 9 58 13 25 31 66 41 92 15 39 22 47 38 43 11 -3 15 -2 8 1 -8 4 -8 12
3 32 8 15 14 42 14 60 0 17 8 40 18 50 9 10 19 26 20 37 2 11 11 24 19 31 9 6
13 16 9 22 -4 7 -1 12 7 12 15 0 27 29 27 68 0 25 0 25 -37 12 l-28 -10 23 19
c12 11 22 22 22 25 0 12 -40 6 -40 -6 0 -7 -9 -24 -20 -38 -11 -14 -20 -33
-20 -42 0 -10 -4 -18 -10 -18 -5 0 -10 -7 -10 -16 0 -9 -11 -25 -25 -36 -14
-11 -25 -25 -25 -32 0 -15 -56 -67 -63 -60 -9 10 -18 -36 -12 -58 5 -18 4 -19
-4 -8 -8 12 -13 11 -34 -8 -13 -12 -27 -19 -30 -15 -4 3 -5 -20 -2 -53 2 -37
1 -53 -5 -44 -5 8 -6 26 -3 40 6 22 4 23 -10 12 -29 -24 -25 20 6 63 15 22 49
72 75 110 25 39 50 72 54 73 5 2 8 8 8 13 0 6 26 45 58 89 62 86 133 195 144
223 4 9 12 17 17 17 6 0 8 7 5 15 -4 8 -1 15 6 15 6 0 8 5 5 10 -3 6 -1 10 4
10 6 0 17 15 25 32 8 18 22 44 30 58 9 14 36 69 60 123 25 53 49 97 55 97 6 0
8 6 5 14 -3 7 8 33 23 57 15 24 34 53 41 64 7 11 17 32 23 47 12 30 32 29 23
0 -3 -9 4 1 15 22 12 22 19 49 16 60 -4 17 -3 17 7 -2 9 -18 9 -28 0 -43 -7
-10 -8 -19 -4 -19 14 0 33 51 27 74 -2 11 -2 15 1 9 9 -21 27 -15 21 7 -3 12
0 20 8 20 7 0 16 11 19 25 4 14 11 25 17 25 6 0 8 4 5 8 -3 5 1 20 9 35 8 15
12 27 9 27 -3 0 4 14 16 30 13 18 20 39 17 51 -4 14 -1 19 11 17 9 -2 17 4 18
12 11 75 16 90 26 84 7 -4 8 -3 4 4 -9 14 22 113 40 128 8 6 11 14 8 17 -9 9
5 59 15 53 5 -3 12 15 16 40 3 25 16 67 27 92 14 34 18 59 14 90 -5 41 -5 43
17 38 12 -3 8 1 -9 9 -27 12 -51 41 -42 51 2 1 19 -5 38 -13 19 -9 39 -15 43
-14 5 1 6 -3 2 -9 -3 -5 3 -10 14 -10 l21 0 0 870 0 870 -2300 0 -2300 0 0
-820z m3725 -159 c-9 -28 13 -109 47 -169 21 -40 27 -61 23 -85 -3 -18 0 -53
8 -79 11 -34 12 -49 3 -58 -8 -8 -7 -13 4 -20 12 -7 12 -12 2 -22 -9 -9 -12
-9 -12 1 0 8 -9 5 -26 -8 -15 -12 -35 -21 -45 -21 -11 0 -19 -4 -19 -10 0 -5
-9 -10 -20 -10 -11 0 -20 4 -20 10 0 5 -8 6 -17 3 -12 -5 -13 -8 -4 -11 15 -5
-36 -42 -58 -42 -8 0 -22 -7 -31 -15 -9 -8 -27 -15 -41 -15 -13 0 -43 0 -66 0
-38 -1 -42 2 -48 30 -5 21 -13 30 -26 30 -22 0 -26 -34 -8 -74 10 -20 9 -29
-2 -43 -9 -11 -10 -14 -1 -9 7 4 12 1 12 -8 0 -27 -14 -18 -37 24 -15 24 -23
57 -24 87 l-1 48 -11 -38 c-7 -22 -16 -35 -20 -31 -4 5 -5 1 -2 -8 4 -9 2 -19
-4 -22 -5 -3 -12 8 -16 25 -5 24 -11 29 -23 23 -37 -16 -92 -15 -131 2 -38 16
-63 44 -40 44 6 0 8 4 4 9 -3 5 6 22 20 37 14 15 25 23 25 18 0 -5 6 -2 13 7
7 9 53 35 102 58 50 23 99 47 110 54 11 6 41 23 68 37 61 34 295 246 289 263
-1 4 5 7 14 7 11 0 13 -6 9 -19z m590 -232 c-9 -35 -37 -69 -63 -74 -12 -2
-22 -1 -22 2 0 9 82 104 87 100 2 -3 1 -15 -2 -28z m-1327 -139 c4 -118 5
-116 -50 -112 -21 2 -23 -8 -5 -28 9 -11 8 -11 -7 0 -18 14 -19 13 -13 -2 4
-10 2 -18 -4 -18 -7 0 -9 9 -4 23 3 12 10 38 14 57 5 19 16 62 26 95 10 33 17
74 16 90 -2 25 0 28 11 17 9 -9 14 -48 16 -122z m-323 80 c-5 -27 9 -25 29 3
15 22 16 22 6 -6 -6 -16 -10 -49 -10 -75 0 -26 -5 -54 -10 -62 -7 -11 -10 -5
-10 23 0 26 -4 36 -11 31 -7 -4 -9 -28 -6 -68 l6 -61 -14 40 c-7 22 -14 64
-14 94 -1 49 -2 52 -18 40 -10 -7 -2 4 16 24 19 20 36 37 37 37 2 0 1 -9 -1
-20z m1694 -100 c-8 -26 -20 -45 -31 -48 -12 -3 -17 -10 -13 -22 3 -11 -1 -20
-10 -24 -8 -3 -15 0 -15 7 0 19 30 58 40 52 5 -3 12 11 16 32 7 42 14 57 21
50 2 -3 -1 -24 -8 -47z m-510 -12 c-8 -15 -12 -16 -23 -6 -14 14 -6 25 19 25
10 0 11 -5 4 -19z m-1102 -110 c-3 -8 -6 -5 -6 6 -1 11 2 17 5 13 3 -3 4 -12
1 -19z m1474 -19 c-9 -23 -10 -22 -10 11 -1 23 2 31 9 24 7 -7 7 -19 1 -35z
m-285 17 c18 -14 18 -15 -8 -21 -15 -4 -34 -2 -45 5 -15 9 -12 10 17 6 33 -5
34 -5 16 9 -25 19 -6 20 20 1z m-971 -15 c3 -5 1 -12 -5 -16 -5 -3 -10 1 -10
9 0 18 6 21 15 7z m-276 -46 c0 -5 -4 -3 -9 5 -5 8 -9 22 -9 30 0 16 17 -16
18 -35z m340 -52 c16 -16 19 -23 9 -23 -8 0 -19 5 -26 12 -9 9 -12 7 -12 -9 0
-12 5 -25 10 -28 6 -3 10 -14 10 -24 0 -10 12 -40 26 -67 23 -44 24 -47 5 -30
-25 23 -26 17 -7 -29 8 -19 12 -35 9 -35 -3 0 -1 -6 4 -12 6 -7 13 -25 17 -40
3 -16 11 -28 16 -28 6 0 10 -7 10 -15 0 -8 -5 -15 -11 -15 -5 0 -7 -4 -4 -10
3 -5 4 -10 2 -10 -2 0 -16 18 -31 40 -21 32 -28 60 -37 142 -8 69 -20 120 -36
155 -37 80 -21 89 46 26z m1250 -39 c-14 -17 -49 -5 -49 15 0 28 11 31 35 13
16 -11 20 -21 14 -28z m-264 -7 c18 -14 13 -43 -6 -32 -5 4 -9 -12 -9 -35 0
-25 4 -39 10 -35 26 16 -14 -68 -50 -103 -16 -17 -30 -37 -30 -45 0 -8 -9 -22
-20 -32 -11 -10 -20 -29 -20 -42 0 -20 -5 -23 -34 -23 -19 0 -38 5 -41 10 -3
6 -17 10 -30 10 -29 0 -84 53 -60 58 8 2 15 12 15 23 0 11 10 23 23 28 29 12
97 73 97 89 0 16 32 52 46 52 11 0 28 36 25 54 -1 5 5 6 14 3 10 -5 15 0 15
13 0 23 27 27 55 7z m-365 -17 c0 -5 -4 -10 -10 -10 -5 0 -10 5 -10 10 0 6 5
10 10 10 6 0 10 -4 10 -10z m605 0 c4 -6 10 -8 15 -5 10 6 -4 -46 -19 -72 -9
-15 -10 -13 -5 12 4 17 7 32 6 35 0 25 -4 31 -17 26 -8 -3 -15 -1 -15 4 0 13
27 13 35 0z m-3642 -13 c4 3 7 -1 7 -9 0 -9 7 -18 15 -22 27 -10 96 -173 107
-250 15 -108 -9 -385 -33 -370 -5 3 -6 -2 -3 -10 4 -9 1 -16 -6 -16 -8 0 -11
11 -8 30 3 17 0 30 -6 30 -6 0 -4 5 4 10 8 5 11 10 6 10 -5 0 -3 6 3 13 6 8 8
17 5 20 -4 4 -7 30 -7 59 0 29 -2 47 -4 40 -3 -6 -9 -10 -14 -6 -5 3 -9 1 -9
-5 0 -5 5 -13 10 -16 6 -3 10 -12 10 -18 0 -7 -5 -4 -11 6 -5 9 -17 17 -24 17
-18 0 -19 12 -5 54 5 17 13 45 18 61 l9 30 11 -35 c10 -29 10 -24 4 35 -3 39
-6 86 -5 105 1 19 -2 37 -7 40 -5 3 -11 15 -13 25 -6 31 -36 97 -55 119 -13
15 -13 18 -2 12 8 -4 6 0 -4 8 -11 9 -16 16 -12 16 5 0 2 8 -5 18 -12 15 -12
16 2 5 9 -7 19 -10 22 -6z m2510 5 c-8 -5 -9 -13 -3 -22 14 -21 12 -30 -4 -30
-14 0 -26 21 -26 46 0 8 10 14 23 14 14 0 18 -3 10 -8z m642 -12 c-10 -11 -25
-20 -34 -20 -10 0 -5 8 14 20 38 25 43 25 20 0z m-3475 -6 c0 -8 -4 -12 -10
-9 -5 3 -10 10 -10 16 0 5 5 9 10 9 6 0 10 -7 10 -16z m3120 0 c0 -13 -42 -24
-58 -15 -15 9 -14 10 6 11 12 0 22 4 22 10 0 5 7 7 15 4 8 -4 15 -8 15 -10z
m193 1 c-3 -9 -8 -14 -10 -11 -3 3 -2 9 2 15 9 16 15 13 8 -4z m-499 -47 c7
-5 6 -8 -3 -8 -11 0 -11 -3 -1 -15 7 -9 10 -18 7 -21 -6 -7 -31 38 -42 76 l-7
25 18 -25 c10 -14 23 -28 28 -32z m101 1 c-7 -11 -35 -12 -35 -1 0 4 9 8 20 9
11 1 18 -2 15 -8z m495 7 c0 -2 -7 -7 -16 -10 -8 -3 -12 -2 -9 4 6 10 25 14
25 6z m55 -15 c-3 -6 -14 -10 -23 -10 -15 1 -15 2 1 6 9 2 17 9 17 15 0 6 3 9
6 5 3 -3 3 -10 -1 -16z m-432 -126 c-14 -124 -30 -186 -43 -164 -6 8 -11 6
-19 -7 -10 -18 -10 -18 -11 -1 0 10 8 29 17 44 9 14 16 39 15 56 -2 17 2 33 8
37 6 4 15 35 21 71 10 67 17 95 23 88 1 -2 -3 -58 -11 -124z m118 -8 c-1 -63
-14 -97 -36 -97 -8 0 -15 -7 -15 -15 0 -8 8 -15 17 -15 9 0 25 -8 35 -17 17
-15 19 -15 31 0 6 9 26 19 42 22 23 5 33 2 42 -14 11 -18 10 -22 -10 -33 -12
-7 -37 -13 -55 -13 -21 -1 -38 -9 -48 -23 -11 -16 -25 -22 -55 -22 -44 0 -83
16 -74 30 3 5 1 11 -5 15 -5 3 -10 11 -10 16 0 6 4 8 9 5 5 -4 11 0 13 6 3 7
18 13 34 13 25 0 29 3 25 25 -1 13 -9 33 -16 43 -9 13 -10 29 -3 60 6 23 10
62 9 86 -2 35 1 42 13 38 9 -4 19 -1 23 6 12 20 35 -55 34 -116z m-2488 26 c3
-18 13 -40 21 -49 9 -8 16 -21 16 -27 0 -7 -5 -6 -11 3 -8 12 -9 9 -4 -10 8
-29 7 -107 -1 -134 -4 -12 -2 -16 5 -12 7 5 11 -7 11 -36 0 -29 -3 -38 -9 -29
-7 10 -9 8 -9 -10 0 -13 -4 -36 -7 -51 -6 -23 -4 -28 11 -28 15 0 29 25 63
108 108 266 118 304 92 336 -12 14 -11 16 5 16 37 0 47 -15 41 -61 -5 -37 -4
-41 7 -27 7 10 16 15 19 11 4 -3 7 -1 7 5 0 14 11 15 43 3 l24 -10 -19 -58
c-24 -71 -32 -80 -26 -30 4 40 -4 48 -22 20 -11 -17 -11 -17 -6 -1 3 10 1 20
-4 23 -4 3 -10 -19 -12 -49 -1 -30 0 -52 5 -49 4 2 7 12 7 21 1 15 2 15 15 -2
17 -22 20 -50 5 -41 -6 4 -10 -6 -10 -24 0 -16 4 -31 8 -33 5 -1 12 -29 16
-61 4 -39 3 -56 -4 -52 -5 3 -10 13 -10 21 0 8 -4 14 -10 14 -5 0 -10 -18 -10
-39 0 -29 -5 -40 -17 -43 -14 -3 -53 -103 -55 -145 -1 -7 -5 -13 -9 -13 -15 0
-51 -244 -50 -342 0 -32 -4 -58 -9 -58 -6 0 -11 -19 -11 -42 -1 -24 -4 -34 -6
-23 -3 11 -10 26 -16 33 -5 7 -10 27 -11 44 -1 17 -6 33 -13 35 -19 7 -27 -63
-17 -143 5 -40 6 -85 1 -101 -5 -15 -8 -52 -7 -82 0 -30 -4 -57 -10 -61 -6 -4
-13 -31 -16 -60 -3 -30 -8 -58 -11 -64 -4 -5 -8 -19 -9 -30 -12 -109 -27 -151
-51 -142 -13 5 -14 0 -8 -31 6 -32 5 -35 -8 -25 -12 10 -16 9 -20 -8 -3 -11 0
-20 6 -21 7 0 2 -4 -10 -9 -13 -5 -23 -14 -23 -20 0 -5 -7 -10 -15 -10 -8 0
-15 -6 -15 -13 0 -15 -70 -57 -91 -56 -11 0 -11 2 0 6 38 15 93 118 122 227
23 89 71 254 79 271 5 11 12 49 17 85 l7 65 7 -50 c4 -27 5 11 3 85 -3 90 -1
130 5 120 6 -8 13 -12 16 -8 3 3 -2 13 -11 23 -14 14 -16 29 -10 103 3 48 8
101 10 117 13 107 18 227 9 222 -6 -4 -13 -26 -17 -49 -4 -24 -9 -54 -12 -68
-3 -14 -7 -54 -8 -90 -2 -36 -4 -74 -5 -85 l-2 -20 -9 20 c-6 14 -9 15 -9 5
-1 -9 3 -20 9 -26 12 -12 -8 -180 -24 -197 -6 -7 -12 -27 -13 -46 -1 -19 -14
-51 -28 -72 -14 -21 -25 -43 -25 -49 0 -18 -158 -172 -163 -158 -4 10 -6 9 -7
-2 -1 -17 -103 -94 -144 -109 -14 -6 -26 -14 -26 -19 0 -5 -11 -15 -25 -22
-20 -11 -27 -11 -42 1 -16 13 -17 12 -5 -3 11 -14 8 -20 -30 -45 -66 -45 -68
-46 -68 -28 0 9 4 13 10 10 6 -4 7 1 3 11 -5 13 -3 15 7 9 9 -6 11 -4 5 5 -6
10 -11 9 -21 -5 -8 -10 -16 -16 -20 -13 -3 3 19 26 49 49 30 24 58 53 63 64 5
11 18 20 28 20 11 0 21 7 23 15 4 13 3 13 -6 0 -5 -8 -13 -11 -16 -8 -4 4 1
18 12 32 19 26 33 33 33 16 0 -5 -5 -10 -11 -10 -5 0 -7 -5 -4 -11 9 -14 17
-5 20 26 2 16 -1 23 -7 19 -13 -8 -7 3 34 63 15 23 28 44 28 48 0 8 53 89 64
97 6 4 14 4 18 2 12 -7 10 10 -2 22 -7 7 -5 18 7 35 19 25 44 76 84 167 13 28
27 52 30 52 4 0 13 20 20 45 12 40 15 44 26 29 10 -14 12 -12 11 15 -1 16 -4
28 -9 26 -4 -3 -5 4 -2 15 3 11 9 17 14 14 5 -3 6 2 3 10 -3 8 1 28 9 43 13
24 32 79 68 199 9 31 12 112 2 84 -17 -54 -66 -164 -85 -192 -10 -14 -18 -33
-18 -41 0 -9 -4 -17 -8 -19 -9 -3 -56 -100 -67 -135 -3 -13 -10 -23 -15 -23
-10 0 6 60 20 74 5 5 10 20 10 32 0 13 8 30 18 40 9 10 16 18 14 18 -10 2 16
73 59 163 28 58 62 152 79 219 17 65 33 120 35 124 7 12 8 145 1 170 l-7 25
19 -24 c11 -14 22 -40 25 -58z m258 43 c5 3 19 -2 31 -10 12 -9 17 -16 11 -16
-7 0 -15 5 -18 10 -4 6 -15 8 -26 5 -14 -5 -19 -2 -18 12 0 10 3 13 6 5 2 -6
9 -10 14 -6z m-744 -48 c-3 -8 -6 -5 -6 6 -1 11 2 17 5 13 3 -3 4 -12 1 -19z
m2649 -8 c6 -6 27 -11 47 -12 24 -1 37 -6 37 -15 0 -7 5 -13 11 -13 8 0 7 -5
-1 -15 -11 -13 -10 -14 4 -9 20 8 21 -3 1 -22 -22 -23 -45 -13 -67 26 -10 19
-22 34 -26 33 -5 -1 -13 7 -20 18 -13 20 -3 26 14 9z m470 -97 c-6 -6 -46 20
-46 30 0 4 11 0 25 -9 14 -9 24 -19 21 -21z m94 -24 c92 -30 113 -42 126 -67
6 -12 15 -26 19 -30 5 -4 5 -1 1 6 -13 22 9 13 23 -10 16 -26 22 -86 9 -94
-13 -8 -68 39 -63 54 3 7 1 11 -4 8 -10 -7 -125 67 -143 92 -7 10 -21 21 -30
25 -17 6 -26 37 -10 37 4 0 36 -10 72 -21z m-3310 -10 c0 -5 -4 -9 -10 -9 -5
0 -10 7 -10 16 0 8 5 12 10 9 6 -3 10 -10 10 -16z m3807 -93 c-7 -13 -6 -16 3
-11 9 5 10 1 5 -16 -5 -13 -9 -33 -10 -44 -1 -11 -3 -20 -4 -20 -1 0 -4 -15
-7 -33 -2 -18 -11 -46 -19 -62 -9 -17 -15 -32 -15 -35 1 -11 -43 -105 -47
-101 -3 2 2 17 11 34 8 16 15 38 14 48 0 10 6 62 15 114 9 52 19 117 22 144 9
66 28 87 35 37 3 -20 2 -44 -3 -55z m-3811 47 c-7 -7 -26 7 -26 19 0 6 6 6 15
-2 9 -7 13 -15 11 -17z m2937 -63 c-7 -8 -22 24 -16 34 4 5 10 1 13 -10 4 -10
6 -21 3 -24z m587 -19 c0 -6 -4 -13 -10 -16 -5 -3 -10 1 -10 9 0 9 5 16 10 16
6 0 10 -4 10 -9z m-2640 -129 c0 -13 -4 -20 -10 -17 -5 3 -10 21 -10 38 0 24
3 28 10 17 5 -8 10 -25 10 -38z m-666 32 c23 -9 21 -45 -1 -37 -27 9 -43 24
-37 34 6 11 16 11 38 3z m80 -37 c-2 -57 -4 -67 -14 -67 -6 0 -10 22 -9 50 2
32 6 49 13 47 6 -2 11 -16 10 -30z m-494 3 c-33 -26 -49 -26 -19 0 13 10 29
19 34 19 6 1 -1 -8 -15 -19z m209 -22 c11 -10 13 -10 7 0 -8 14 10 17 18 3 6
-10 -29 -97 -43 -105 -11 -7 -39 15 -42 34 -5 25 11 60 27 60 8 0 12 5 9 10
-9 14 8 12 24 -2z m896 -28 c3 -5 -1 -10 -9 -10 -9 0 -16 5 -16 10 0 6 4 10 9
10 6 0 13 -4 16 -10z m-998 -22 c-3 -8 -6 -5 -6 6 -1 11 2 17 5 13 3 -3 4 -12
1 -19z m373 -15 c-1 -10 -26 -43 -33 -43 -3 0 0 11 6 25 11 23 27 34 27 18z
m-305 -63 c3 -6 -4 -10 -17 -10 -18 0 -20 2 -8 10 19 12 18 12 25 0z m902 4
c-3 -3 -12 -4 -19 -1 -8 3 -5 6 6 6 11 1 17 -2 13 -5z m57 -10 c9 -24 7 -56
-3 -50 -11 7 -20 66 -10 66 4 0 10 -7 13 -16z m-24 -19 c0 -8 -4 -15 -10 -15
-5 0 -10 7 -10 15 0 8 5 15 10 15 6 0 10 -7 10 -15z m-648 -37 c-9 -9 -15 -9
-24 0 -10 10 -10 15 2 22 20 12 38 -6 22 -22z m-301 -5 c13 -16 12 -17 -3 -4
-10 7 -18 15 -18 17 0 8 8 3 21 -13z m976 -35 c-3 -8 -6 -5 -6 6 -1 11 2 17 5
13 3 -3 4 -12 1 -19z m2158 -8 c3 -5 1 -10 -4 -10 -6 0 -11 5 -11 10 0 6 2 10
4 10 3 0 8 -4 11 -10z m696 -87 c-8 -15 -10 -15 -11 -2 0 17 10 32 18 25 2 -3
-1 -13 -7 -23z m-3511 -94 l-22 -34 7 30 c7 34 27 63 33 47 1 -5 -7 -25 -18
-43z m-39 -72 c-8 -8 -11 -7 -11 4 0 20 13 34 18 19 3 -7 -1 -17 -7 -23z
m3915 -19 c-6 -33 -12 -51 -47 -133 -5 -11 -8 -27 -7 -35 1 -8 0 -31 -1 -50
-3 -33 -4 -33 -11 -10 -4 14 -8 19 -9 11 -2 -32 -44 -130 -53 -125 -6 4 -8 -2
-4 -14 4 -11 2 -23 -4 -27 -6 -3 -8 -11 -5 -16 4 -5 1 -9 -4 -9 -6 0 -11 8
-11 18 0 10 -5 23 -12 30 -9 9 -9 12 1 12 7 0 11 6 7 15 -3 8 2 21 10 30 8 8
12 20 8 26 -4 7 -3 9 3 6 6 -4 14 0 17 9 3 8 2 12 -4 9 -14 -8 -13 -3 6 33 8
18 20 32 25 32 6 0 8 9 4 19 -7 23 40 120 48 99 4 -8 6 -7 6 5 1 9 5 25 10 35
5 9 12 25 15 35 8 25 17 21 12 -5z m-3936 -27 c0 -6 -4 -13 -10 -16 -5 -3 -10
1 -10 9 0 9 5 16 10 16 6 0 10 -4 10 -9z m2905 -256 c5 -22 9 -43 9 -47 1 -4
7 -13 14 -19 6 -7 12 -23 12 -34 0 -12 6 -35 14 -51 33 -70 66 -158 73 -196 6
-32 -12 -38 -22 -8 -3 11 -11 20 -16 20 -5 0 -9 7 -9 15 0 9 -9 34 -20 56 -12
22 -19 43 -16 48 3 4 -4 22 -15 39 -10 18 -19 41 -19 51 0 10 -6 36 -14 57 -7
22 -16 62 -20 91 -3 28 -8 59 -12 70 -3 10 3 2 14 -17 11 -19 23 -53 27 -75z
m-870 -103 c3 -37 10 -94 15 -127 13 -82 19 -235 9 -235 -4 0 -10 19 -13 43
-18 143 -36 328 -36 360 0 62 18 33 25 -41z m205 -252 c1 25 1 25 10 3 5 -12
10 -77 11 -145 1 -67 5 -131 10 -142 5 -12 15 -78 23 -148 8 -69 19 -134 26
-145 10 -16 11 -15 6 7 -8 32 -14 151 -8 145 5 -5 14 -49 31 -155 5 -30 12
-65 16 -77 9 -28 -9 -31 -25 -5 -9 13 -10 4 -5 -38 6 -50 5 -54 -10 -39 -20
20 -69 162 -89 261 -12 57 -16 132 -15 290 1 122 4 202 9 188 l8 -25 2 25z
m-2543 -5 c0 -8 -13 -17 -29 -20 -16 -4 -25 -11 -22 -17 4 -7 2 -8 -4 -4 -7 4
-12 3 -12 -2 0 -6 -17 -20 -37 -32 -35 -20 -34 -18 16 29 29 28 58 48 64 44 6
-3 7 -1 3 5 -4 7 -1 12 7 12 7 0 14 -7 14 -15z m3470 -47 c-3 -8 -6 -5 -6 6
-1 11 2 17 5 13 3 -3 4 -12 1 -19z m-2880 -110 c-3 -8 -6 -5 -6 6 -1 11 2 17
5 13 3 -3 4 -12 1 -19z m2795 0 c-7 -7 -12 -8 -12 -2 0 14 12 26 19 19 2 -3
-1 -11 -7 -17z m-2837 2 c3 -5 -1 -10 -10 -10 -9 0 -13 5 -10 10 3 6 8 10 10
10 2 0 7 -4 10 -10z m-55 -56 c0 -17 -22 -14 -28 4 -2 7 3 12 12 12 9 0 16 -7
16 -16z m-90 -9 c-14 -17 -30 -20 -30 -6 0 5 8 12 18 14 9 3 19 5 21 6 2 0 -2
-6 -9 -14z m20 -25 c0 -5 -2 -10 -4 -10 -3 0 -8 5 -11 10 -3 6 -1 10 4 10 6 0
11 -4 11 -10z m2908 -2 c-6 -18 -25 -21 -31 -5 -3 8 3 13 15 14 10 1 18 -3 16
-9z m-2812 -13 c-17 -17 -54 -19 -76 -4 -11 7 -5 8 21 3 22 -3 39 -2 43 5 4 6
12 11 17 11 6 0 4 -7 -5 -15z m64 11 c0 -2 -9 -6 -20 -9 -11 -3 -18 -1 -14 4
5 9 34 13 34 5z m2682 -88 c-6 -6 -15 -8 -19 -4 -4 4 -1 11 7 16 19 12 27 3
12 -12z m-649 -33 c5 -28 4 -34 -3 -20 -8 19 -14 73 -6 64 2 -2 6 -22 9 -44z
m1567 6 c-5 -11 -15 -23 -21 -27 -6 -3 -3 5 6 20 20 30 30 35 15 7z m-1006 -7
c3 -8 2 -12 -4 -9 -6 3 -10 10 -10 16 0 14 7 11 14 -7z m442 -109 c-11 -8 -24
-15 -30 -15 -5 0 -1 7 10 15 10 8 24 14 29 14 6 0 1 -6 -9 -14z m-858 -41 c-3
-14 -5 -12 -10 9 -3 19 -2 25 4 19 6 -6 8 -18 6 -28z m1170 -4 c-6 -22 -15
-40 -20 -40 -6 0 -7 7 -4 16 3 9 6 27 6 40 0 14 6 24 14 24 11 0 12 -8 4 -40z
m-30 -62 c-9 -7 -18 -20 -21 -28 -4 -10 -6 -8 -6 7 -1 20 10 30 33 32 6 1 3
-5 -6 -11z m-1131 -35 c-3 -10 -5 -4 -5 12 0 17 2 24 5 18 2 -7 2 -21 0 -30z
m530 -10 c-3 -10 -5 -4 -5 12 0 17 2 24 5 18 2 -7 2 -21 0 -30z m324 -6 c-10
-9 -11 -8 -5 6 3 10 9 15 12 12 3 -3 0 -11 -7 -18z m-864 -59 c-3 -7 -5 -2 -5
12 0 14 2 19 5 13 2 -7 2 -19 0 -25z m1524 -9 c-25 -21 -42 -21 -49 -1 -3 9 4
11 21 8 17 -3 27 1 31 11 4 9 10 13 14 9 4 -4 -4 -16 -17 -27z m-998 -9 c3
-11 1 -18 -4 -14 -5 3 -9 12 -9 20 0 20 7 17 13 -6z m264 -15 c0 -8 -4 -12 -9
-9 -5 3 -6 10 -3 15 9 13 12 11 12 -6z m-283 -11 c3 -8 2 -12 -4 -9 -6 3 -10
10 -10 16 0 14 7 11 14 -7z m986 -2 c0 -5 -9 -17 -20 -27 -23 -21 -26 -14 -8
15 13 20 28 27 28 12z m-720 -6 c0 -2 -8 -10 -17 -17 -16 -13 -17 -12 -4 4 13
16 21 21 21 13z m-283 -28 c-3 -8 -6 -5 -6 6 -1 11 2 17 5 13 3 -3 4 -12 1
-19z m280 -20 c-3 -8 -6 -5 -6 6 -1 11 2 17 5 13 3 -3 4 -12 1 -19z m-27 8 c0
-2 -7 -7 -16 -10 -8 -3 -12 -2 -9 4 6 10 25 14 25 6z m-283 -38 c-3 -8 -6 -5
-6 6 -1 11 2 17 5 13 3 -3 4 -12 1 -19z m-400 -90 c-3 -7 -5 -2 -5 12 0 14 2
19 5 13 2 -7 2 -19 0 -25z m100 -160 c-3 -8 -6 -5 -6 6 -1 11 2 17 5 13 3 -3
4 -12 1 -19z"/>
<path d="M3096 3145 c-9 -26 -7 -32 5 -12 6 10 9 21 6 23 -2 3 -7 -2 -11 -11z"/>
<path d="M3135 3150 c-3 -5 -1 -10 4 -10 6 0 11 5 11 10 0 6 -2 10 -4 10 -3 0
-8 -4 -11 -10z"/>
<path d="M3432 3110 c0 -19 2 -27 5 -17 2 9 2 25 0 35 -3 9 -5 1 -5 -18z"/>
<path d="M3450 3116 c0 -8 5 -18 10 -21 6 -3 10 3 10 14 0 12 -4 21 -10 21 -5
0 -10 -6 -10 -14z"/>
<path d="M3355 3040 c3 -5 8 -10 11 -10 2 0 4 5 4 10 0 6 -5 10 -11 10 -5 0
-7 -4 -4 -10z"/>
<path d="M671 2515 c1 -19 18 -51 18 -35 0 8 -4 22 -9 30 -5 8 -9 11 -9 5z"/>
<path d="M656 2465 c-9 -26 -7 -32 5 -12 6 10 9 21 6 23 -2 3 -7 -2 -11 -11z"/>
<path d="M3330 2561 c0 -5 5 -13 10 -16 6 -3 10 -2 10 4 0 5 -4 13 -10 16 -5
3 -10 2 -10 -4z"/>
<path d="M1225 2721 c-6 -11 9 -23 19 -14 9 9 7 23 -3 23 -6 0 -12 -4 -16 -9z"/>
<path d="M1162 2655 c0 -16 2 -22 5 -12 2 9 2 23 0 30 -3 6 -5 -1 -5 -18z"/>
<path d="M1170 2536 c0 -9 5 -16 10 -16 6 0 10 4 10 9 0 6 -4 13 -10 16 -5 3
-10 -1 -10 -9z"/>
<path d="M960 2490 c0 -5 5 -10 10 -10 6 0 10 5 10 10 0 6 -4 10 -10 10 -5 0
-10 -4 -10 -10z"/>
<path d="M1082 2420 c0 -14 2 -19 5 -12 2 6 2 18 0 25 -3 6 -5 1 -5 -13z"/>
<path d="M890 2001 c0 -11 5 -23 10 -26 6 -3 10 3 10 14 0 11 -4 23 -10 26 -5
3 -10 -3 -10 -14z"/>
<path d="M941 1914 c0 -11 3 -14 6 -6 3 7 2 16 -1 19 -3 4 -6 -2 -5 -13z"/>
<path d="M691 1784 c0 -11 3 -14 6 -6 3 7 2 16 -1 19 -3 4 -6 -2 -5 -13z"/>
<path d="M940 1721 c0 -6 5 -13 10 -16 6 -3 10 1 10 9 0 9 -4 16 -10 16 -5 0
-10 -4 -10 -9z"/>
<path d="M830 1665 c1 -26 2 -28 11 -12 8 14 8 22 0 30 -8 8 -11 3 -11 -18z"/>
<path d="M625 1659 c-4 -6 -5 -12 -2 -15 2 -3 7 2 10 11 7 17 1 20 -8 4z"/>
<path d="M946 1635 c4 -8 8 -15 10 -15 2 0 4 7 4 15 0 8 -4 15 -10 15 -5 0 -7
-7 -4 -15z"/>
<path d="M760 1549 c0 -5 5 -7 10 -4 6 3 10 8 10 11 0 2 -4 4 -10 4 -5 0 -10
-5 -10 -11z"/>
<path d="M522 1470 c-7 -11 -8 -20 -3 -20 9 0 24 30 18 36 -1 2 -8 -6 -15 -16z"/>
<path d="M545 1449 c-4 -6 -5 -12 -2 -15 2 -3 7 2 10 11 7 17 1 20 -8 4z"/>
<path d="M510 1426 c0 -2 8 -10 18 -17 15 -13 16 -12 3 4 -13 16 -21 21 -21
13z"/>
<path d="M348 1223 c7 -3 16 -2 19 1 4 3 -2 6 -13 5 -11 0 -14 -3 -6 -6z"/>
<path d="M375 2290 c3 -5 8 -10 11 -10 2 0 4 5 4 10 0 6 -5 10 -11 10 -5 0 -7
-4 -4 -10z"/>
<path d="M4460 1690 c0 -5 5 -10 11 -10 5 0 7 5 4 10 -3 6 -8 10 -11 10 -2 0
-4 -4 -4 -10z"/>
<path d="M4440 1659 c0 -5 5 -7 10 -4 6 3 10 8 10 11 0 2 -4 4 -10 4 -5 0 -10
-5 -10 -11z"/>
<path d="M20 2830 c0 -3 21 -17 45 -32 37 -22 43 -31 39 -52 -2 -13 0 -28 6
-31 6 -4 20 -24 31 -47 11 -22 22 -38 25 -35 8 8 -16 61 -38 85 -16 16 -18 22
-7 22 12 0 11 2 -1 10 -8 5 -10 10 -5 10 12 0 39 -31 43 -49 1 -7 9 -20 17
-28 8 -8 15 -27 15 -43 0 -16 6 -31 13 -33 10 -4 10 -6 0 -6 -7 -1 -13 -10
-13 -22 0 -26 -29 -88 -51 -110 -8 -8 -44 -29 -77 -45 -53 -25 -62 -33 -62
-55 l0 -26 55 18 c31 10 69 28 85 39 17 12 33 19 38 16 4 -2 9 5 9 16 1 11 9
28 18 38 23 25 55 119 55 161 0 74 -57 162 -126 195 -28 13 -114 16 -114 4z"/>
<path d="M580 2605 c-10 -19 -11 -28 -2 -37 8 -8 10 -5 6 13 -5 20 -4 21 6 9
10 -13 11 -13 6 3 -3 9 -1 17 4 17 6 0 10 5 10 10 0 19 -17 10 -30 -15z"/>
<path d="M0 2425 c0 -13 4 -14 23 -4 33 17 33 19 4 19 -18 0 -27 -5 -27 -15z"/>
<path d="M158 2108 c5 -5 16 -8 23 -6 8 3 3 7 -10 11 -17 4 -21 3 -13 -5z"/>
<path d="M370 1810 c0 -5 5 -10 11 -10 5 0 7 5 4 10 -3 6 -8 10 -11 10 -2 0
-4 -4 -4 -10z"/>
<path d="M423 1712 c-10 -18 -23 -32 -30 -32 -6 0 -15 -10 -18 -22 -21 -73
-39 -96 -48 -60 -3 10 -5 6 -6 -10 0 -16 -5 -28 -11 -28 -5 0 -10 -9 -10 -20
0 -11 -7 -23 -15 -26 -8 -4 -15 -10 -15 -14 0 -5 -13 -24 -30 -42 -16 -18 -30
-38 -30 -45 0 -7 -4 -13 -8 -13 -4 0 -16 -14 -25 -30 -10 -17 -31 -45 -48 -62
-16 -18 -29 -38 -29 -45 0 -7 -4 -13 -10 -13 -5 0 -10 -5 -10 -11 0 -5 4 -7
10 -4 5 3 7 0 4 -9 -3 -8 -12 -12 -20 -9 -8 3 -14 -1 -14 -9 0 -7 -8 -21 -17
-30 -37 -34 -43 -49 -43 -98 0 -27 3 -50 8 -49 21 2 193 213 219 269 4 8 12
21 19 27 7 7 27 39 45 70 17 32 44 78 59 103 15 25 33 65 40 90 8 25 17 47 21
50 4 3 16 23 28 44 15 26 19 42 12 49 -7 7 -16 0 -28 -21z"/>
<path d="M330 1630 c0 -5 5 -10 10 -10 6 0 10 5 10 10 0 6 -4 10 -10 10 -5 0
-10 -4 -10 -10z"/>
<path d="M220 1580 c0 -5 5 -10 11 -10 5 0 7 5 4 10 -3 6 -8 10 -11 10 -2 0
-4 -4 -4 -10z"/>
<path d="M116 1423 c-6 -14 -5 -15 5 -6 7 7 10 15 7 18 -3 3 -9 -2 -12 -12z"/>
<path d="M386 1391 c-3 -5 1 -11 9 -14 9 -4 12 -1 8 9 -6 16 -10 17 -17 5z"/>
<path d="M356 1363 c-6 -14 -5 -15 5 -6 7 7 10 15 7 18 -3 3 -9 -2 -12 -12z"/>
<path d="M41 1314 c0 -11 3 -14 6 -6 3 7 2 16 -1 19 -3 4 -6 -2 -5 -13z"/>
<path d="M310 1320 c0 -13 26 -19 41 -9 15 10 14 10 -18 14 -13 1 -23 -1 -23
-5z"/>
<path d="M280 1299 c0 -5 5 -7 10 -4 6 3 10 8 10 11 0 2 -4 4 -10 4 -5 0 -10
-5 -10 -11z"/>
<path d="M255 1240 c-3 -6 1 -7 9 -4 18 7 21 14 7 14 -6 0 -13 -4 -16 -10z"/>
<path d="M3795 1239 c-11 -16 -1 -19 13 -3 7 8 8 14 3 14 -5 0 -13 -5 -16 -11z"/>
<path d="M230 1220 c0 -13 18 -22 24 -11 3 5 -1 11 -9 15 -8 3 -15 1 -15 -4z"/>
<path d="M57 1068 c-10 -11 -16 -23 -12 -26 3 -4 10 -1 14 7 5 7 12 12 16 12
5 -1 10 5 11 14 3 20 -7 18 -29 -7z"/>
<path d="M4060 965 c0 -5 5 -17 10 -25 5 -8 10 -10 10 -5 0 6 -5 17 -10 25 -5
8 -10 11 -10 5z"/>
<path d="M3750 931 c0 -6 4 -13 10 -16 6 -3 7 1 4 9 -7 18 -14 21 -14 7z"/>
<path d="M4040 930 c0 -5 5 -10 11 -10 5 0 7 5 4 10 -3 6 -8 10 -11 10 -2 0
-4 -4 -4 -10z"/>
<path d="M3475 840 c-3 -5 -1 -10 4 -10 6 0 11 5 11 10 0 6 -2 10 -4 10 -3 0
-8 -4 -11 -10z"/>
<path d="M4580 524 c0 -8 5 -12 10 -9 6 3 10 10 10 16 0 5 -4 9 -10 9 -5 0
-10 -7 -10 -16z"/>
<path d="M3182 420 c0 -14 2 -19 5 -12 2 6 2 18 0 25 -3 6 -5 1 -5 -13z"/>
<path d="M3221 194 c0 -11 3 -14 6 -6 3 7 2 16 -1 19 -3 4 -6 -2 -5 -13z"/>
</g>
</svg>
